<svg width="1200" height="46" viewBox="0 0 1440 46" fill="none" xmlns="http://www.w3.org/2000/svg">
<line y1="22" x2="678" y2="22" stroke="url(#paint0_linear_25_20)" stroke-width="2"/>
<line y1="-1" x2="678" y2="-1" transform="matrix(-1 0 0 1 1440 23)" stroke="url(#paint1_linear_25_20)" stroke-width="2"/>
<path d="M735.812 7.1875H704.188C703.425 7.1875 702.694 7.4904 702.155 8.02957C701.615 8.56873 701.312 9.3 701.312 10.0625V35.9375C701.312 36.7 701.615 37.4313 702.155 37.9704C702.694 38.5096 703.425 38.8125 704.188 38.8125H735.812C736.575 38.8125 737.306 38.5096 737.845 37.9704C738.385 37.4313 738.688 36.7 738.688 35.9375V10.0625C738.688 9.3 738.385 8.56873 737.845 8.02957C737.306 7.4904 736.575 7.1875 735.812 7.1875ZM735.812 10.0625V17.25H704.188V10.0625H735.812ZM704.188 20.125H714.25V35.9375H704.188V20.125ZM735.812 35.9375H717.125V20.125H735.812V35.9375Z" fill="#555555"/>
<path d="M735.812 7.1875H704.188C703.425 7.1875 702.694 7.4904 702.155 8.02957C701.615 8.56873 701.312 9.3 701.312 10.0625V35.9375C701.312 36.7 701.615 37.4313 702.155 37.9704C702.694 38.5096 703.425 38.8125 704.188 38.8125H735.812C736.575 38.8125 737.306 38.5096 737.845 37.9704C738.385 37.4313 738.688 36.7 738.688 35.9375V10.0625C738.688 9.3 738.385 8.56873 737.845 8.02957C737.306 7.4904 736.575 7.1875 735.812 7.1875ZM735.812 10.0625V17.25H704.188V10.0625H735.812ZM704.188 20.125H714.25V35.9375H704.188V20.125ZM735.812 35.9375H717.125V20.125H735.812V35.9375Z" fill="#555555"/>
<defs>
<linearGradient id="paint0_linear_25_20" x1="0" y1="23" x2="678" y2="22.9982" gradientUnits="userSpaceOnUse">
<stop offset="0.677083" stop-color="#555555"/>
<stop offset="1" stop-color="#555555" stop-opacity="0"/>
</linearGradient>
<linearGradient id="paint1_linear_25_20" x1="0" y1="0" x2="678" y2="-0.00175788" gradientUnits="userSpaceOnUse">
<stop offset="0.677083" stop-color="#555555"/>
<stop offset="1" stop-color="#555555" stop-opacity="0"/>
</linearGradient>
</defs>
</svg>
