<svg width="1440" height="46" viewBox="0 0 1440 46" fill="none" xmlns="http://www.w3.org/2000/svg">
<line y1="22" x2="678" y2="22" stroke="url(#paint0_linear_113_36)" stroke-width="2"/>
<line y1="-1" x2="678" y2="-1" transform="matrix(-1 0 0 1 1440 23)" stroke="url(#paint1_linear_113_36)" stroke-width="2"/>
<path d="M709.42 16.9176L702.121 23L709.42 29.0824C709.569 29.2019 709.693 29.3499 709.785 29.5178C709.876 29.6857 709.933 29.8702 709.952 30.0603C709.971 30.2505 709.952 30.4426 709.896 30.6254C709.84 30.8082 709.748 30.9779 709.626 31.1248C709.504 31.2716 709.353 31.3926 709.184 31.4806C709.014 31.5687 708.828 31.622 708.638 31.6374C708.447 31.6529 708.256 31.6302 708.074 31.5706C707.892 31.5111 707.724 31.416 707.58 31.2908L698.955 24.1033C698.793 23.9684 698.663 23.7995 698.574 23.6087C698.484 23.4179 698.438 23.2098 698.438 22.9991C698.438 22.7884 698.484 22.5803 698.574 22.3895C698.663 22.1987 698.793 22.0298 698.955 21.8949L707.58 14.7074C707.873 14.4634 708.251 14.3458 708.631 14.3805C709.011 14.4152 709.361 14.5994 709.605 14.8925C709.849 15.1856 709.967 15.5636 709.932 15.9434C709.897 16.3231 709.713 16.6736 709.42 16.9176ZM741.045 21.8949L732.42 14.7074C732.275 14.5866 732.107 14.4955 731.927 14.4395C731.747 14.3834 731.557 14.3634 731.369 14.3805C731.181 14.3977 730.998 14.4518 730.831 14.5396C730.664 14.6275 730.516 14.7474 730.395 14.8925C730.151 15.1856 730.033 15.5636 730.068 15.9434C730.103 16.3231 730.287 16.6736 730.58 16.9176L737.879 23L730.58 29.0824C730.431 29.2019 730.307 29.3499 730.216 29.5178C730.124 29.6857 730.067 29.8702 730.048 30.0603C730.029 30.2505 730.048 30.4426 730.104 30.6254C730.16 30.8082 730.252 30.9779 730.374 31.1248C730.496 31.2716 730.647 31.3926 730.816 31.4806C730.986 31.5687 731.172 31.622 731.362 31.6374C731.553 31.6529 731.744 31.6302 731.926 31.5706C732.108 31.5111 732.276 31.416 732.42 31.2908L741.045 24.1033C741.207 23.9684 741.337 23.7995 741.426 23.6087C741.516 23.4179 741.562 23.2098 741.562 22.9991C741.562 22.7884 741.516 22.5803 741.426 22.3895C741.337 22.1987 741.207 22.0298 741.045 21.8949ZM726.241 5.83624C726.063 5.77181 725.875 5.74297 725.686 5.75136C725.498 5.75975 725.312 5.8052 725.141 5.88513C724.97 5.96505 724.817 6.07788 724.689 6.21717C724.562 6.35646 724.463 6.51949 724.399 6.69694L712.899 38.3219C712.834 38.4995 712.805 38.6881 712.813 38.8769C712.822 39.0657 712.867 39.251 712.947 39.4222C713.027 39.5934 713.14 39.7472 713.279 39.8748C713.419 40.0023 713.582 40.1011 713.76 40.1655C713.917 40.2215 714.083 40.2501 714.25 40.25C714.545 40.25 714.833 40.1591 715.075 39.9897C715.317 39.8203 715.501 39.5805 715.601 39.303L727.101 7.67803C727.166 7.50059 727.195 7.31218 727.186 7.12359C727.178 6.935 727.132 6.7499 727.052 6.57887C726.972 6.40784 726.86 6.25423 726.72 6.12681C726.581 5.99939 726.418 5.90065 726.241 5.83624Z" fill="#555555"/>
<defs>
<linearGradient id="paint0_linear_113_36" x1="0" y1="23" x2="678" y2="22.9982" gradientUnits="userSpaceOnUse">
<stop offset="0.677083" stop-color="#555555"/>
<stop offset="1" stop-color="#555555" stop-opacity="0"/>
</linearGradient>
<linearGradient id="paint1_linear_113_36" x1="0" y1="0" x2="678" y2="-0.00175788" gradientUnits="userSpaceOnUse">
<stop offset="0.677083" stop-color="#555555"/>
<stop offset="1" stop-color="#555555" stop-opacity="0"/>
</linearGradient>
</defs>
</svg>
