<svg width="1200" height="46" viewBox="0 0 1440 46" fill="none" xmlns="http://www.w3.org/2000/svg">
<line y1="22" x2="678" y2="22" stroke="url(#paint0_linear_31_280)" stroke-width="2"/>
<line y1="-1" x2="678" y2="-1" transform="matrix(-1 0 0 1 1440 23)" stroke="url(#paint1_linear_31_280)" stroke-width="2"/>
<path d="M720 20.8437C720.426 20.8437 720.843 20.9702 721.198 21.2071C721.553 21.4441 721.829 21.7808 721.992 22.1748C722.155 22.5688 722.198 23.0024 722.115 23.4207C722.032 23.8389 721.826 24.2231 721.525 24.5247C721.223 24.8263 720.839 25.0316 720.421 25.1148C720.002 25.198 719.569 25.1553 719.175 24.9921C718.781 24.8289 718.444 24.5525 718.207 24.1979C717.97 23.8434 717.844 23.4265 717.844 23C717.844 22.4281 718.071 21.8797 718.475 21.4753C718.88 21.0709 719.428 20.8437 720 20.8437ZM709.938 23C709.938 22.5735 709.811 22.1566 709.574 21.8021C709.337 21.4475 709 21.1711 708.606 21.0079C708.212 20.8447 707.779 20.802 707.361 20.8852C706.942 20.9684 706.558 21.1737 706.257 21.4753C705.955 21.7769 705.75 22.1611 705.666 22.5793C705.583 22.9976 705.626 23.4312 705.789 23.8252C705.952 24.2192 706.229 24.5559 706.583 24.7929C706.938 25.0298 707.355 25.1562 707.781 25.1562C708.353 25.1562 708.902 24.9291 709.306 24.5247C709.71 24.1203 709.938 23.5719 709.938 23ZM730.062 23C730.062 23.4265 730.189 23.8434 730.426 24.1979C730.663 24.5525 731 24.8289 731.394 24.9921C731.788 25.1553 732.221 25.198 732.639 25.1148C733.058 25.0316 733.442 24.8263 733.743 24.5247C734.045 24.2231 734.25 23.8389 734.334 23.4207C734.417 23.0024 734.374 22.5688 734.211 22.1748C734.048 21.7808 733.771 21.4441 733.417 21.2071C733.062 20.9702 732.645 20.8437 732.219 20.8437C731.647 20.8437 731.098 21.0709 730.694 21.4753C730.29 21.8797 730.062 22.4281 730.062 23Z" fill="#454545"/>
<defs>
<linearGradient id="paint0_linear_31_280" x1="0" y1="23" x2="678" y2="22.9982" gradientUnits="userSpaceOnUse">
<stop offset="0.677083" stop-color="#555555"/>
<stop offset="1" stop-color="#555555" stop-opacity="0"/>
</linearGradient>
<linearGradient id="paint1_linear_31_280" x1="0" y1="0" x2="678" y2="-0.00175788" gradientUnits="userSpaceOnUse">
<stop offset="0.677083" stop-color="#555555"/>
<stop offset="1" stop-color="#555555" stop-opacity="0"/>
</linearGradient>
</defs>
</svg>
