<svg width="36" height="37" viewBox="0 0 36 37" fill="none" xmlns="http://www.w3.org/2000/svg">
<g filter="url(#filter0_b_59_9)">
<circle cx="17.8625" cy="18.788" r="17.8625" fill="#555555" fill-opacity="0.2"/>
<circle cx="17.8625" cy="18.788" r="17.4904" stroke="#555555" stroke-width="0.744271"/>
</g>
<path d="M25.8317 16.3375L18.389 23.7802C18.3199 23.8494 18.2378 23.9043 18.1475 23.9418C18.0571 23.9793 17.9603 23.9985 17.8624 23.9985C17.7646 23.9985 17.6678 23.9793 17.5774 23.9418C17.4871 23.9043 17.405 23.8494 17.3359 23.7802L9.89316 16.3375C9.75351 16.1979 9.67505 16.0085 9.67505 15.811C9.67505 15.6135 9.75351 15.4241 9.89316 15.2844C10.0328 15.1447 10.2222 15.0663 10.4197 15.0663C10.6172 15.0663 10.8066 15.1447 10.9463 15.2844L17.8624 22.2015L24.7786 15.2844C24.8477 15.2152 24.9298 15.1604 25.0202 15.123C25.1105 15.0855 25.2074 15.0663 25.3052 15.0663C25.4029 15.0663 25.4998 15.0855 25.5901 15.123C25.6805 15.1604 25.7626 15.2152 25.8317 15.2844C25.9009 15.3535 25.9557 15.4356 25.9932 15.526C26.0306 15.6163 26.0498 15.7132 26.0498 15.811C26.0498 15.9088 26.0306 16.0056 25.9932 16.0959C25.9557 16.1863 25.9009 16.2684 25.8317 16.3375Z" fill="#555555"/>
<defs>
<filter id="filter0_b_59_9" x="-14.8854" y="-13.9599" width="65.4959" height="65.4958" filterUnits="userSpaceOnUse" color-interpolation-filters="sRGB">
<feFlood flood-opacity="0" result="BackgroundImageFix"/>
<feGaussianBlur in="BackgroundImageFix" stdDeviation="7.44271"/>
<feComposite in2="SourceAlpha" operator="in" result="effect1_backgroundBlur_59_9"/>
<feBlend mode="normal" in="SourceGraphic" in2="effect1_backgroundBlur_59_9" result="shape"/>
</filter>
</defs>
</svg>
